<svg width="800" height="600" viewBox="0 0 800 600" fill="none" xmlns="http://www.w3.org/2000/svg">
  <rect width="800" height="600" fill="#111111"/>
  <rect x="44" y="44" width="712" height="512" rx="32" fill="#1f1a16"/>
  <circle cx="220" cy="178" r="72" fill="#f59e0b" fill-opacity=".22"/>
  <path d="M276 232h204c0 91-46 158-102 158s-102-67-102-158Z" fill="#d6d3d1"/>
  <path d="M480 252h44c33 0 60 27 60 60s-27 60-60 60h-42" stroke="#d6d3d1" stroke-width="28"/>
  <path d="M322 202c-18-31 15-42 0-76M380 202c-18-31 15-42 0-76M438 202c-18-31 15-42 0-76" stroke="#fbbf24" stroke-width="18" stroke-linecap="round"/>
  <rect x="244" y="404" width="268" height="24" rx="12" fill="#78716c"/>
  <text x="400" y="500" text-anchor="middle" fill="#fafaf9" font-family="Arial, sans-serif" font-size="34" font-weight="700">Hot Drink</text>
</svg>
